{"title":"Authors Anonymous 2014 HDRIP x264 AC3 TiTAN","uid":9784933,"size":977596219,"categoryP":"video","categoryS":"movies","magnet":"?xt=urn:btih:82a68f5fbbcac6d38f715eb656a1f9dc2c16cd01&amp;dn=Authors+Anonymous+2014+HDRIP+x264+AC3+TiTAN&amp;tr=udp%3A%2F%2Ftracker.openbittorrent.com%3A80&amp;tr=udp%3A%2F%2Fopen.demonii.com%3A1337&amp;tr=udp%3A%2F%2Ftracker.coppersurfer.tk%3A6969&amp;tr=udp%3A%2F%2Fexodus.desync.com%3A6969","seeders":1,"leechers":0,"uploader":"Thhaque","files":1,"time":1395150143,"description":"[IMG]http://i.imgur.com/Ur8Ui7B.jpg[/IMG]\n &lt;a href=&quot;\nhttp://www.imdb.com/title/tt2114461/&quot; rel=&quot;nofollow&quot; target=&quot;_NEW&quot;&gt;\nhttp://www.imdb.com/title/tt2114461/&lt;/a&gt;\n\nSource: Itunes\n\nGeneral\n\nFormat                                   : Matroska\nFormat version                           : Version 2\nFile size                                : 932 MiB\nDuration                                 : 1h 32mn\nOverall bit rate mode                    : Variable\nOverall bit rate                         : 1 411 Kbps\nEncoded date                             : UTC 2014-03-19 11:28:02\nWriting application                      : mkvmerge v6.8.0 ('Theme for Great Cities') 32bit built on Mar  2 2014 21:27:07\nWriting library                          : libebml v1.3.0 + libmatroska v1.4.1\n\nVideo\nID                                       : 1\nFormat                                   : AVC\nFormat/Info                              : Advanced Video Codec\nFormat profile                           : &lt;a class=&quot;__cf_email__&quot; href=&quot;/cdn-cgi/l/email-protection&quot; data-cfemail=&quot;064e6f616e464a322837&quot;&gt;[email&amp;#160;protected]&lt;/a&gt;&lt;script cf-hash='f9e31' type=&quot;text/javascript&quot;&gt;\n/* &lt;![CDATA[ */!function(){try{var t=&quot;currentScript&quot;in document?document.currentScript:function(){for(var t=document.getElementsByTagName(&quot;script&quot;),e=t.length;e--;)if(t[e].getAttribute(&quot;cf-hash&quot;))return t[e]}();if(t&amp;&amp;t.previousSibling){var e,r,n,i,c=t.previousSibling,a=c.getAttribute(&quot;data-cfemail&quot;);if(a){for(e=&quot;&quot;,r=parseInt(a.substr(0,2),16),n=2;a.length-n;n+=2)i=parseInt(a.substr(n,2),16)^r,e+=String.fromCharCode(i);e=document.createTextNode(e),c.parentNode.replaceChild(e,c)}}}catch(u){}}();/* ]]&gt; */&lt;/script&gt;\nFormat settings, CABAC                   : Yes\nFormat settings, ReFrames                : 3 frames\nCodec ID                                 : V_MPEG4/ISO/AVC\nDuration                                 : 1h 32mn\nBit rate mode                            : Variable\nBit rate                                 : 999 Kbps\nMaximum bit rate                         : 40.0 Mbps\nWidth                                    : 720 pixels\nHeight                                   : 384 pixels\nDisplay aspect ratio                     : 1.85:1\nFrame rate mode                          : Constant\nFrame rate                               : 23.976 fps\nColor space                              : YUV\nChroma subsampling                       : 4:2:0\nBit depth                                : 8 bits\nScan type                                : Progressive\nBits/(Pixel*Frame)                       : 0.151\nStream size                              : 660 MiB (71%)\nWriting library                          : x264 core 142 r2409 d6b4e63\nDefault                                  : Yes\nForced                                   : No\nColor primaries                          : BT.709\nTransfer characteristics                 : BT.709\nMatrix coefficients                      : BT.709\n\nAudio\nID                                       : 2\nFormat                                   : AC-3\nFormat/Info                              : Audio Coding 3\nMode extension                           : CM (complete main)\nFormat settings, Endianness              : Big\nCodec ID                                 : A_AC3\nDuration                                 : 1h 32mn\nBit rate mode                            : Constant\nBit rate                                 : 384 Kbps\nChannel(s)                               : 6 channels\nChannel positions                        : Front: L C R, Side: L R, LFE\nSampling rate                            : 48.0 KHz\nBit depth                                : 16 bits\nCompression mode                         : Lossy\nStream size                              : 254 MiB (27%)\nLanguage                                 : English\nDefault                                  : Yes\nForced                                   : No\n\n\n[IMG]http://i.imgur.com/jwyGxNY.png[/IMG]\n[IMG]http://i.imgur.com/gcOZ05q.png[/IMG]\n[IMG]http://i.imgur.com/DYNUGsN.png[/IMG]\n[IMG]http://i.imgur.com/Uze52tC.png[/IMG]\n[IMG]http://i.imgur.com/UroJPvE.png[/IMG]\n\nVisit: thhaque.blogspot .com","torrent":{"xt":"urn:btih:82a68f5fbbcac6d38f715eb656a1f9dc2c16cd01","amp;dn":"Authors+Anonymous+2014+HDRIP+x264+AC3+TiTAN","amp;tr":["udp%3A%2F%2Ftracker.openbittorrent.com%3A80","udp%3A%2F%2Fopen.demonii.com%3A1337","udp%3A%2F%2Ftracker.coppersurfer.tk%3A6969","udp%3A%2F%2Fexodus.desync.com%3A6969"],"infoHash":"82a68f5fbbcac6d38f715eb656a1f9dc2c16cd01","infoHashBuffer":{"type":"Buffer","data":[130,166,143,95,187,202,198,211,143,113,94,182,86,161,249,220,44,22,205,1]},"announce":[],"urlList":[]}}